<svg width="180" height="180" viewBox="0 0 180 180" fill="none" xmlns="http://www.w3.org/2000/svg">
<g id="Frame 6228">
<g clip-path="url(#clip0_361_2744)">
<rect width="180" height="180" rx="90" fill="white"/>
<path id="Vector" d="M180 90C180 72.1997 174.722 54.7991 164.832 39.9987C154.943 25.1983 140.887 13.6628 124.441 6.85088C107.996 0.0389983 89.9002 -1.7433 72.4419 1.72936C54.9836 5.20203 38.9471 13.7737 26.3604 26.3604C13.7736 38.9472 5.20204 54.9836 1.72937 72.4419C-1.7433 89.9002 0.0389754 107.996 6.85086 124.442C13.6627 140.887 25.1982 154.943 39.9987 164.832C54.7991 174.722 72.1996 180 90 180C113.869 180 136.761 170.518 153.64 153.64C170.518 136.761 180 113.869 180 90Z" fill="#00D2FF"/>
<path id="Vector_2" d="M150.968 85.2292C149.05 83.7893 147.054 82.4544 144.989 81.2304C144.11 80.6819 143.295 80.0381 142.559 79.3109C141.017 77.7914 138.436 75.1522 137.599 73.5226C137.064 72.5229 137.286 70.6035 137.7 68.824C138.431 65.6854 137.884 62.3874 136.177 59.6466L133.485 55.3179C132.249 53.3422 131.254 51.228 130.521 49.0197C129.598 46.1795 127.985 43.608 125.823 41.5319C121.457 37.3031 109.379 35.2237 99.3474 34.8938C98.725 34.7097 98.0921 34.5628 97.4519 34.4539C92.9856 33.6941 88.2167 32.4545 83.9419 33.2643C77.5902 34.4439 71.178 36.4134 66.3789 41.262C65.3707 42.2617 63.9088 42.7115 62.8703 43.6413C60.8539 45.4907 58.0209 45.4907 56.1859 47.5401C55.1172 48.7298 54.6232 52.6387 51.8103 54.1282C47.1524 56.5975 43.7446 59.3267 42.5852 60.7163C41.7282 61.766 41.0729 62.9857 40.2361 64.0554C39.3993 65.1251 35.3866 67.0045 34.1869 68.1642C33.2966 69.1424 32.6504 70.3141 32.3002 71.5851C31.9499 72.8561 31.9055 74.1909 32.1705 75.4821C32.241 75.792 32.2915 76.0419 32.3318 76.2418C32.7956 77.9413 34.0356 81.0104 33.7533 82.42C33.4105 84.0895 29.0853 96.526 38.7943 99.835C39.6826 100.099 40.462 100.638 41.0175 101.375C41.573 102.111 41.8752 103.004 41.8795 103.924C42.0891 105.584 42.5728 107.198 43.3112 108.702C43.9564 109.921 44.9079 110.954 46.0737 111.702C47.317 112.874 48.4917 114.116 49.5923 115.42C53.0202 121.709 52.0523 124.858 58.6662 126.987C60.3538 127.539 61.9736 128.277 63.4954 129.187C65.3502 130.296 67.3386 131.169 69.4136 131.786L69.6758 131.876C71.1276 128.377 72.6096 125.068 74.0816 121.939C62.2654 109.942 65.3707 96.456 66.51 92.857C66.5429 92.7503 66.6022 92.6534 66.6825 92.5752C66.7628 92.4969 66.8615 92.4398 66.9696 92.4091C67.0778 92.3783 67.192 92.3748 67.3019 92.3989C67.4118 92.423 67.5139 92.4739 67.5989 92.5471C70.0791 94.7065 77.6809 102.474 76.7433 116.54C79.3445 111.372 81.8852 106.833 84.2041 102.954C81.413 98.408 79.9224 93.1942 79.8922 87.872C79.862 82.5498 81.2933 77.3198 84.0326 72.7428C84.0932 72.6457 84.1778 72.5655 84.2784 72.5099C84.379 72.4543 84.4922 72.4251 84.6074 72.4251C84.7225 72.4251 84.8358 72.4543 84.9363 72.5099C85.0369 72.5655 85.1215 72.6457 85.182 72.7428C86.9262 75.3021 91.6446 83.7397 88.7208 95.7362C90.8381 92.5171 92.5621 90.1378 93.6913 88.6482C96.716 68.654 111.96 62.0959 115.963 60.7063C116.07 60.6686 116.185 60.6585 116.298 60.6769C116.41 60.6952 116.516 60.7415 116.606 60.8113C116.695 60.8811 116.765 60.9723 116.81 61.0763C116.854 61.1803 116.872 61.2937 116.86 61.4061C116.224 67.4951 113.976 73.3093 110.345 78.26C106.714 83.2107 101.828 87.122 96.1816 89.598C94.0543 92.3672 92.0076 95.2863 90.0517 98.2755C96.8067 93.047 106.264 90.5877 114.128 92.4771C114.238 92.5022 114.34 92.5539 114.425 92.6276C114.511 92.7014 114.576 92.7949 114.616 92.8998C114.656 93.0047 114.669 93.1177 114.654 93.2289C114.639 93.34 114.597 93.4458 114.531 93.5368C112.273 96.536 103.279 106.533 86.3011 104.224C83.4378 109.012 80.8164 113.851 78.4875 118.49C85.8071 113.001 96.4942 110.902 104.782 113.661C104.892 113.696 104.992 113.759 105.072 113.842C105.153 113.926 105.21 114.028 105.24 114.139C105.271 114.251 105.272 114.368 105.245 114.48C105.217 114.592 105.162 114.695 105.084 114.781C102.513 117.53 92.6025 126.547 76.2997 122.968C74.7673 126.167 72.4887 131.436 71.3797 134.035C70.9966 134.935 70.6437 135.835 70.3715 136.754C69.6456 138.874 68.6776 141.523 67.5182 144.162C67.3571 144.54 67.2758 144.946 67.2792 145.355C67.2825 145.765 67.3706 146.17 67.5379 146.545C67.7051 146.919 67.9479 147.256 68.2514 147.534C68.555 147.812 68.9128 148.025 69.3027 148.161C82.1614 152.718 96.1247 153.231 109.288 149.631C109.723 149.507 110.125 149.289 110.463 148.991C110.802 148.694 111.069 148.325 111.244 147.911L111.789 146.651C111.789 146.651 117.475 133.565 118.312 127.857C118.551 126.059 119.114 124.318 119.975 122.718C120.419 121.918 121.061 121.243 121.841 120.757C122.62 120.271 123.512 119.989 124.432 119.939C128.767 119.709 137.992 119.109 141.349 118.05C145.806 116.65 143.87 108.592 143.638 107.723C143.406 106.853 145.785 104.834 146.269 103.664C146.753 102.494 145.07 102.074 144.374 100.785C143.678 99.4951 146.098 98.5554 146.39 97.3857C146.683 96.216 145.604 94.9264 145.14 94.0567C144.832 93.425 144.621 92.751 144.515 92.0573C144.515 92.0573 147.772 89.688 149.556 88.1984C151.341 86.7088 150.968 85.4692 150.968 85.1993" fill="black"/>
</g>
</g>
<defs>
<clipPath id="clip0_361_2744">
<rect width="180" height="180" rx="90" fill="white"/>
</clipPath>
</defs>
</svg>
