<svg width="23" height="22" viewBox="0 0 23 22" fill="none" xmlns="http://www.w3.org/2000/svg">
<path id="Vector" d="M22.4992 11.0592C22.3721 4.7708 17.1448 -0.210016 10.8611 0.00760098C4.72333 0.21959 -0.13008 5.373 0.00265911 11.5357C0.101746 16.0888 2.87245 19.9534 6.78172 21.653C7.33699 20.9458 7.79877 19.6757 8.02873 18.9666C8.25868 18.3888 8.50173 17.8241 8.75599 17.2763C9.8983 17.6759 11.4332 17.2969 12.2708 16.3814L12.3044 16.3439H12.3007C11.2837 15.8956 9.88334 16.1282 8.95977 16.8448C9.27386 16.1901 9.60665 15.5579 9.95625 14.95C11.0799 15.4003 12.626 15.0945 13.5066 14.2203L13.5421 14.1846H13.5384C12.5587 13.6969 11.1771 13.8488 10.2217 14.496C10.5695 13.9164 10.9303 13.3573 11.308 12.8226C12.4708 13.1847 14.0039 12.7382 14.8059 11.7796L14.8377 11.7421H14.834C13.8861 11.3744 12.641 11.5901 11.7548 12.2111C11.7866 12.1698 11.8165 12.1266 11.8483 12.0854C12.0745 11.789 12.3063 11.5019 12.5419 11.2205C13.916 10.8303 15.1406 9.42518 15.3369 7.97315L15.3444 7.91499H15.3388C13.9179 8.20015 12.6017 9.6034 12.3381 11.0873C12.1119 11.3575 11.8894 11.6333 11.6725 11.9165C12.0277 10.9504 11.9642 9.776 11.4463 8.96556V8.96181L11.4127 9.0012C10.6293 9.99174 10.504 11.6089 11.1117 12.6801C10.7546 13.1866 10.4106 13.7137 10.0796 14.2597C10.2872 13.1622 9.93756 11.8884 9.16917 11.1699H9.16543L9.14486 11.213C8.63821 12.3574 8.9093 13.937 9.74499 14.8262C9.41595 15.4022 9.09999 15.9969 8.80086 16.6141C8.98408 15.4734 8.57651 14.1546 7.76138 13.438L7.75764 13.4342L7.73894 13.4811C7.27716 14.6818 7.63238 16.3083 8.52977 17.1769C8.33534 17.599 8.14651 18.0286 7.96516 18.4694C7.92029 18.4244 7.86421 18.3888 7.80064 18.37C7.56694 18.3006 7.24351 18.1787 6.88642 17.9629C6.65085 17.8222 6.40033 17.7059 6.14046 17.6196C5.12528 17.2857 5.27485 16.7942 4.74576 15.8111C4.71211 15.7473 4.29145 15.3084 4.20172 15.2296C4.17928 15.2108 3.91193 15.0532 3.77545 14.7662C3.65019 14.5017 3.58102 14.2578 3.55484 14.0177C3.52119 13.6969 3.38845 13.4867 3.0781 13.3798C1.58432 12.862 2.25362 10.9166 2.30597 10.6577C2.35084 10.4364 2.15827 9.95609 2.08723 9.69158C2.07975 9.65969 2.07227 9.62029 2.06293 9.57339C1.95449 9.05186 2.19754 8.61099 2.37701 8.42902C2.55649 8.24705 3.17532 7.95814 3.30619 7.78742C3.43332 7.62046 3.53615 7.42911 3.66702 7.26589C3.84089 7.04828 4.37372 6.62242 5.09163 6.23596C5.52537 6.00334 5.60389 5.39176 5.76842 5.20603C6.05259 4.88523 6.48072 4.88523 6.80042 4.59633C6.9612 4.45 7.1949 4.37871 7.34446 4.22488C8.08481 3.46322 9.07569 3.15555 10.0572 2.9717C10.7172 2.84788 11.4538 3.03924 12.1437 3.15555C12.2446 3.17243 12.3418 3.19682 12.4353 3.22496C13.9852 3.27749 15.8529 3.60204 16.5259 4.2624C16.9466 4.67512 17.1522 5.12349 17.2532 5.43303C17.3654 5.77821 17.5205 6.10839 17.7094 6.41793L18.1244 7.09518C18.3862 7.52291 18.474 8.03881 18.36 8.52845C18.2964 8.80797 18.2628 9.10063 18.345 9.26385C18.474 9.51711 18.8722 9.93171 19.1115 10.1681C19.2275 10.2825 19.3546 10.3838 19.4929 10.472C19.8126 10.6746 20.4165 11.0629 20.4184 11.0967C20.4184 11.1417 20.4689 11.335 20.2015 11.5676C19.9342 11.8002 19.4294 12.1717 19.4294 12.1717C19.4294 12.1717 19.4555 12.3424 19.5266 12.4775C19.5976 12.6125 19.7715 12.8151 19.7192 12.9971C19.6668 13.1791 19.2948 13.3254 19.4013 13.528C19.5079 13.7306 19.7696 13.7944 19.6949 13.9783C19.6182 14.1621 19.2499 14.4773 19.2873 14.6142C19.3247 14.7512 19.6219 16.01 18.9339 16.2295C18.4142 16.3946 16.9896 16.4884 16.3203 16.524C16.0305 16.539 15.7706 16.7041 15.6323 16.9574C15.5276 17.1487 15.4266 17.4114 15.3743 17.7622C15.2453 18.6533 14.3666 20.7019 14.3666 20.7019C14.3666 20.7019 14.3404 20.7544 14.3011 20.8388C14.2245 21.0227 14.1161 21.3135 14.131 21.4298C14.1404 21.5067 14.2451 21.6549 14.3965 21.8369C14.5161 21.9813 14.7143 22.0376 14.8919 21.9757C19.4032 20.4299 22.6058 16.0963 22.5029 11.0592" fill="#00DACC"/>
</svg>
