<svg width="50" height="50" viewBox="0 0 50 50" fill="none" xmlns="http://www.w3.org/2000/svg">
<path d="M36.3281 17.3594C32.6816 14.6308 29.188 14.7074 29.188 14.7074L28.8309 15.1154C33.166 16.4159 35.1806 18.3284 35.1806 18.3284C28.9783 14.9136 21.0783 14.9381 14.6272 18.3284C14.6272 18.3284 16.7181 16.3138 21.3084 15.0132L21.0535 14.7071C21.0535 14.7071 17.5853 14.6308 13.9134 17.3591C13.9134 17.3591 10.2412 23.9636 10.2412 32.0985C10.2412 32.0985 12.3834 35.7706 18.019 35.9492C18.019 35.9492 18.9625 34.8271 19.7275 33.8582C16.489 32.8892 15.2649 30.8746 15.2649 30.8746C17.2995 32.1478 19.3568 32.9446 21.9206 33.4502C26.0918 34.3088 31.2802 33.426 35.1554 30.8746C35.1554 30.8746 33.8804 32.9401 30.5397 33.8836C31.3047 34.8271 32.2228 35.9237 32.2228 35.9237C37.8583 35.7452 40.0002 32.073 40.0002 32.0988C39.9999 23.964 36.3281 17.3594 36.3281 17.3594ZM20.3649 29.7271C18.9367 29.7271 17.7638 28.4775 17.7638 26.9221C17.8682 23.1967 22.8877 23.2082 22.9659 26.9221C22.9659 28.4775 21.8181 29.7271 20.3649 29.7271ZM29.6723 29.7271C28.2442 29.7271 27.0712 28.4775 27.0712 26.9221C27.1858 23.2041 32.1426 23.2025 32.2734 26.9221C32.2734 28.4775 31.1259 29.7271 29.6723 29.7271Z" fill="#00D2FF"/>
</svg>
