<svg width="50" height="50" viewBox="0 0 50 50" fill="none" xmlns="http://www.w3.org/2000/svg">
<path d="M37.8603 19.3605C37.8603 19.1418 37.5322 17.3922 36.7667 16.6268C35.7826 15.5333 34.6891 15.4239 34.1423 15.4239H34.033C30.6431 15.2052 25.6129 15.2052 25.5036 15.2052C25.5036 15.2052 20.3641 15.2052 16.9742 15.4239H16.8649C16.3181 15.4239 15.2246 15.5333 14.2404 16.6268C13.475 17.5016 13.1469 19.2512 13.1469 19.4699C13.1469 19.5792 12.9282 21.5476 12.9282 23.6252V25.4842C12.9282 27.5619 13.1469 29.5302 13.1469 29.6395C13.1469 29.8582 13.475 31.6079 14.2404 32.3733C15.1152 33.3575 16.2088 33.4668 16.8649 33.5762C16.9742 33.5762 17.0836 33.5762 17.1929 33.5762C19.1612 33.7949 25.1755 33.7949 25.3942 33.7949C25.3942 33.7949 30.5337 33.7949 33.9236 33.5762H34.033C34.5797 33.4668 35.6732 33.3575 36.6574 32.3733C37.4229 31.4985 37.7509 29.7489 37.7509 29.5302C37.7509 29.4208 37.9696 27.4525 37.9696 25.3748V23.5159C38.079 21.5476 37.8603 19.4699 37.8603 19.3605ZM29.7683 24.7187L23.2072 28.218C23.0979 28.218 23.0979 28.3273 22.9885 28.3273C22.8792 28.3273 22.7698 28.3273 22.7698 28.218C22.6605 28.1086 22.5511 27.9993 22.5511 27.7806V20.6728C22.5511 20.454 22.6605 20.3447 22.7698 20.2353C22.8792 20.126 23.0979 20.126 23.3166 20.2353L29.8776 23.7346C30.0963 23.8439 30.2057 23.9533 30.2057 24.172C30.2057 24.3907 29.987 24.6094 29.7683 24.7187Z" fill="#00D2FF"/>
</svg>
