<svg width="66" height="61" viewBox="0 0 66 61" fill="none" xmlns="http://www.w3.org/2000/svg">
<g id="Group 438">
<path id="Vector" d="M21.2407 31.6456C21.2407 25.5144 26.2614 20.4937 32.3926 20.4937C38.5239 20.4937 43.5445 25.5144 43.5445 31.6456C43.5445 37.7769 38.5239 42.7975 32.3926 42.7975C26.2614 42.7975 21.2407 37.7769 21.2407 31.6456Z" stroke="white" stroke-width="2"/>
<path id="Vector_2" d="M7.75146 60L9.33179 58.5316C15.3019 53.0127 23.6718 49.8734 32.3928 49.8734C41.1139 49.8734 49.4837 53.0633 55.4538 58.5316L57.0342 60" stroke="white" stroke-width="2"/>
<path id="Vector_3" d="M49.6074 24.5569C55.3536 24.5569 60.8999 27.1346 64.7973 31.6456" stroke="white" stroke-width="2"/>
<path id="Vector_4" d="M47.5188 1C51.7681 1 55.253 4.48495 55.253 8.73418C55.253 12.9834 51.7681 16.4684 47.5188 16.4684C43.2696 16.4684 39.7847 12.9834 39.7847 8.73418C39.7847 4.48495 43.2696 1 47.5188 1Z" stroke="white" stroke-width="2"/>
<path id="Vector_5" d="M16.1899 24.5569C10.4437 24.5569 4.8974 27.1346 1 31.6456" stroke="white" stroke-width="2"/>
<path id="Vector_6" d="M17.1395 1C21.3887 1 24.8736 4.48495 24.8736 8.73418C24.8736 12.9834 21.3887 16.4684 17.1395 16.4684C12.8902 16.4684 9.40527 12.9834 9.40527 8.73418C9.40527 4.48495 12.8902 1 17.1395 1Z" stroke="white" stroke-width="2"/>
</g>
</svg>
