<svg width="54" height="64" viewBox="0 0 54 64" fill="none" xmlns="http://www.w3.org/2000/svg">
<g id="Group 400">
<path id="Polygon 1" d="M27.1002 19.4L38.2719 25.55V37.85L27.1002 44L15.9285 37.85V25.55L27.1002 19.4Z" stroke="white" stroke-width="2"/>
<path id="Vector 71" d="M16.6001 25.4L27.1001 31.4L37.6001 25.4" stroke="white" stroke-width="2"/>
<path id="Polygon 6" d="M27.0998 7.40002L48.1442 19.7V44.3L27.0998 56.6L6.05539 44.3V19.7L27.0998 7.40002Z" stroke="white" stroke-width="2"/>
<path id="Polygon 2" d="M27.0999 2L32.0362 4.7V10.1L27.0999 12.8L22.1636 10.1V4.7L27.0999 2Z" fill="#8536E6" stroke="white" stroke-width="2"/>
<path id="Polygon 3" d="M27.0999 51.2L32.0362 53.9V59.3L27.0999 62L22.1636 59.3V53.9L27.0999 51.2Z" fill="#8536E6" stroke="white" stroke-width="2"/>
<path id="Polygon 4" d="M7 25.4L1.80385 22.55L1.80385 16.85L7 14L12.1962 16.85L12.1962 22.55L7 25.4Z" fill="#8536E6" stroke="white" stroke-width="2"/>
<path id="Polygon 7" d="M7 50L1.80385 47L1.80385 41L7 38L12.1962 41L12.1962 47L7 50Z" fill="#8536E6" stroke="white" stroke-width="2"/>
<path id="Polygon 5" d="M47.2002 25.4L42.004 22.55L42.004 16.85L47.2002 14L52.3963 16.85L52.3963 22.55L47.2002 25.4Z" fill="#8536E6" stroke="white" stroke-width="2"/>
<path id="Polygon 8" d="M47.2002 50L42.004 47L42.004 41L47.2002 38L52.3963 41L52.3963 47L47.2002 50Z" fill="#8536E6" stroke="white" stroke-width="2"/>
<path id="Vector 72" d="M26.7998 31.4V44" stroke="white" stroke-width="2"/>
</g>
</svg>
