<?xml version="1.0" encoding="UTF-8"?>
<svg width="16px" height="16px" viewBox="0 0 16 16" version="1.1" xmlns="http://www.w3.org/2000/svg" xmlns:xlink="http://www.w3.org/1999/xlink">
    <title>ic_copy</title>
    <g id="页面-1" stroke="none" stroke-width="1" fill="none" fill-rule="evenodd">
        <g id="切图" transform="translate(-350.000000, -2688.000000)" fill-rule="nonzero">
            <g id="ic_copy" transform="translate(350.000000, 2688.000000)">
                <rect id="矩形" fill="#FFFFFF" opacity="0" x="0" y="0" width="16" height="16"></rect>
                <path d="M10.4,13.3090938 C10.4,13.7454531 10.1090937,14.0363594 9.67273438,14.0363594 L2.6181875,14.0363594 C2.1818125,14.0363594 1.89090625,13.7454531 1.89090625,13.3090938 L1.89090625,6.25453125 C1.89090625,6.03634375 1.96364063,5.81817188 2.10909375,5.67271875 C2.25454687,5.52725 2.4,5.52725 2.6181875,5.52725 L3.63635938,5.52725 L3.63635938,4.363625 L2.6181875,4.363625 C1.6,4.363625 0.727265625,5.23634375 0.727265625,6.25453125 L0.727265625,13.3090625 C0.727265625,14.32725 1.6,15.1999844 2.6181875,15.1999844 L9.67271875,15.1999844 C10.6909062,15.1999844 11.5636406,14.32725 11.5636406,13.3090781 L11.5636406,12.2908906 L10.4,12.2908906 L10.4,13.3090781 L10.4,13.3090938 Z M13.3818125,0.8 L6.25454687,0.8 C5.23635938,0.8 4.36364063,1.67273437 4.36364063,2.69090625 L4.36364063,9.8181875 C4.36364063,10.8363594 5.23635938,11.7090938 6.25454688,11.7090938 L13.3090781,11.7090938 C14.4,11.7090938 15.2,10.9090938 15.2727344,9.74545313 L15.2727344,2.6909375 C15.2727344,1.67275 14.4,0.8 13.3818125,0.8 L13.3818125,0.8 Z M13.9636406,9.74546875 C13.9636406,10.1818125 13.6727344,10.4727344 13.2363594,10.4727344 L6.10909375,10.4727344 C5.67273438,10.4727344 5.3818125,10.1818125 5.3818125,9.74545312 L5.3818125,2.6909375 C5.3818125,2.2545625 5.74545313,1.96365625 6.1818125,1.96365625 L13.2363594,1.96365625 C13.6727344,1.96365625 13.9636406,2.2545625 13.9636406,2.69092187 L13.9636406,9.74546875 Z" id="形状" fill="#fff"></path>
            </g>
        </g>
    </g>
</svg>