<?xml version="1.0" encoding="UTF-8"?>
<svg width="32px" height="32px" viewBox="0 0 32 32" version="1.1" xmlns="http://www.w3.org/2000/svg" xmlns:xlink="http://www.w3.org/1999/xlink">
    <title>ic_close</title>
    <g id="页面-1" stroke="none" stroke-width="1" fill="none" fill-rule="evenodd">
        <g id="切图" transform="translate(-598.000000, -2980.000000)">
            <g id="ic_close" transform="translate(598.000000, 2980.000000)">
                <rect id="矩形" stroke="#DDDDDD" x="0.5" y="0.5" width="31" height="31" rx="8"></rect>
                <g id="guanbi" transform="translate(10.000000, 10.000000)" fill="#DDDDDD" fill-rule="nonzero">
                    <path d="M6.93259027,6.00435464 L11.8062448,1.12716299 C12.0645851,0.868635166 12.0645851,0.450590168 11.8062448,0.193895871 C11.5479044,-0.0646319569 11.1301626,-0.0646319569 10.8736545,0.193895871 L6,5.07108751 L1.12634552,0.193895871 C0.868005191,-0.0646319569 0.450263379,-0.0646319569 0.193755248,0.193895871 C-0.0645850828,0.452423698 -0.0645850828,0.870468696 0.193755248,1.12716299 L5.06740973,6.00435464 L0.201084052,10.8742122 C-0.0572562791,11.13274 -0.0572562791,11.550785 0.201084052,11.8074793 C0.329338117,11.9358264 0.497900603,12 0.66829529,12 C0.838689976,12 1.00542026,11.9358264 1.13550653,11.8074793 L6,6.93762176 L10.8663257,11.8074793 C10.9945797,11.9358264 11.1631422,12 11.3335369,12 C11.5039316,12 11.6706619,11.9358264 11.8007481,11.8074793 C12.0590885,11.5489514 12.0590885,11.1309065 11.8007481,10.8742122 L6.93259027,6.00435464 Z" id="路径"></path>
                </g>
            </g>
        </g>
    </g>
</svg>