<svg width="34" height="34" viewBox="0 0 34 34" fill="none" xmlns="http://www.w3.org/2000/svg">
<g clip-path="url(#clip0_673_969)">
<g filter="url(#filter0_b_673_969)">
<path d="M25.8891 30.3035C23.2579 32.0616 20.1645 33 17 33C12.7565 33 8.68687 31.3143 5.68629 28.3137C2.68571 25.3131 0.999999 21.2435 0.999999 17C0.999999 13.8355 1.93838 10.7421 3.69649 8.11088C5.45459 5.47969 7.95345 3.42894 10.8771 2.21793C13.8007 1.00693 17.0177 0.690079 20.1214 1.30744C23.2251 1.92481 26.0761 3.44866 28.3137 5.6863C30.5513 7.92394 32.0752 10.7749 32.6926 13.8786C33.3099 16.9823 32.9931 20.1993 31.7821 23.1229C30.5711 26.0466 28.5203 28.5454 25.8891 30.3035Z" stroke="#AA30FF" stroke-width="2"/>
</g>
<path d="M21.3442 12.8445L12.8442 21.3445" stroke="#AA30FF" stroke-width="2" stroke-linecap="round"/>
<path d="M21.3442 21.3445L12.8442 12.8445" stroke="#AA30FF" stroke-width="2" stroke-linecap="round"/>
</g>
<defs>
<filter id="filter0_b_673_969" x="-50" y="-50" width="134" height="134" filterUnits="userSpaceOnUse" color-interpolation-filters="sRGB">
<feFlood flood-opacity="0" result="BackgroundImageFix"/>
<feGaussianBlur in="BackgroundImageFix" stdDeviation="25"/>
<feComposite in2="SourceAlpha" operator="in" result="effect1_backgroundBlur_673_969"/>
<feBlend mode="normal" in="SourceGraphic" in2="effect1_backgroundBlur_673_969" result="shape"/>
</filter>
<clipPath id="clip0_673_969">
<rect width="34" height="34" rx="17" fill="white"/>
</clipPath>
</defs>
</svg>
