<svg xmlns="http://www.w3.org/2000/svg" width="44" height="44" viewBox="0 0 44 44">
    <g id="_2022_V-Brand_2022_FullColour" data-name="2022_V-Brand_2022 FullColour"
        transform="translate(-81.172 -59.427)">
        <path id="Path_1" data-name="Path 1"
            d="M126.453,81.6a22.643,22.643,0,1,0-31.642,21.265,19.594,19.594,0,0,0,2.5-5.378c.454-1.155.947-2.291,1.458-3.39a7.107,7.107,0,0,0,7.082-1.8l.076-.076h0a7.04,7.04,0,0,0-6.722,1c.625-1.307,1.307-2.575,2.007-3.806a7.069,7.069,0,0,0,7.139-1.458l.076-.076h0a7.063,7.063,0,0,0-6.665.625c.7-1.155,1.42-2.291,2.178-3.352a7.092,7.092,0,0,0,7.044-2.083l.057-.076h0a6.957,6.957,0,0,0-6.192.947c.057-.076.133-.17.189-.246.454-.587.928-1.174,1.4-1.742a8.337,8.337,0,0,0,5.624-6.514l.019-.114h-.019a8.3,8.3,0,0,0-6.041,6.362c-.454.549-.909,1.1-1.344,1.666a6.951,6.951,0,0,0-.454-5.927h0l-.057.076a7.087,7.087,0,0,0-.606,7.385c-.72,1.023-1.42,2.064-2.083,3.162a7,7,0,0,0-1.837-6.192h0l-.038.095a7.065,7.065,0,0,0,1.212,7.252c-.663,1.155-1.288,2.348-1.894,3.579a7.316,7.316,0,0,0-2.083-6.362h0l-.038.095a7.34,7.34,0,0,0,1.591,7.4c-.4.852-.776,1.7-1.136,2.594a1.031,1.031,0,0,0-.341-.208,7.5,7.5,0,0,1-1.837-.814,7.587,7.587,0,0,0-1.5-.682c-2.045-.663-1.742-1.647-2.8-3.636A15.063,15.063,0,0,0,89.68,90a2.52,2.52,0,0,1-.852-.928,4.417,4.417,0,0,1-.436-1.5,1.382,1.382,0,0,0-.966-1.288c-3.011-1.041-1.666-4.942-1.553-5.454a6.525,6.525,0,0,0-.436-1.931,1.623,1.623,0,0,1-.057-.246,2.661,2.661,0,0,1,.625-2.291c.36-.36,1.61-.947,1.875-1.288s.454-.72.72-1.041a10.979,10.979,0,0,1,2.878-2.064c.871-.473,1.023-1.685,1.363-2.064.568-.644,1.439-.644,2.083-1.212.322-.284.8-.436,1.1-.738a9.878,9.878,0,0,1,5.454-2.518,12.366,12.366,0,0,1,4.2.379,5.336,5.336,0,0,1,.587.133c3.124.114,6.874.757,8.237,2.083a5.593,5.593,0,0,1,1.458,2.348,8.881,8.881,0,0,0,.909,1.969l.833,1.363a3.833,3.833,0,0,1,.473,2.878,2.631,2.631,0,0,0-.038,1.477,10.292,10.292,0,0,0,1.534,1.818,4.623,4.623,0,0,0,.757.606,20.427,20.427,0,0,1,1.856,1.25,1.017,1.017,0,0,1-.436.947c-.53.473-1.553,1.212-1.553,1.212a2.5,2.5,0,0,0,.189.606c.151.265.492.682.379,1.041s-.852.663-.644,1.06c.208.417.738.53.587.909-.151.36-.89,1-.814,1.269s.682,2.8-.72,3.238a31.493,31.493,0,0,1-5.264.587,1.689,1.689,0,0,0-1.382.871,4.593,4.593,0,0,0-.511,1.61,37.647,37.647,0,0,1-2.026,5.889s-.057.114-.133.284a3.509,3.509,0,0,0-.341,1.193,2.393,2.393,0,0,0,.53.814.954.954,0,0,0,1,.284A22.822,22.822,0,0,0,126.453,81.6Z"
            transform="translate(0 0)" fill="#00dacc"></path>
    </g>
</svg>