<svg width="123" height="44" viewBox="0 0 123 44" fill="none" xmlns="http://www.w3.org/2000/svg">
<path d="M44.0407 22C44.0407 17.6488 42.7492 13.3953 40.3296 9.77746C37.9099 6.15958 34.4708 3.33979 30.4471 1.67466C26.4235 0.00953293 21.9959 -0.426141 17.7244 0.422733C13.4529 1.27161 9.5292 3.36691 6.4496 6.44366C3.37 9.52041 1.27279 13.4404 0.423126 17.708C-0.426533 21.9756 0.00953613 26.3991 1.6762 30.419C3.34287 34.439 6.16527 37.8749 9.78649 40.2923C13.4077 42.7097 17.6651 44 22.0203 44C27.8605 44 33.4614 41.6821 37.591 37.5564C41.7207 33.4305 44.0407 27.8348 44.0407 22Z" fill="#00D2FF"/>
<path d="M36.8723 20.9076C36.406 20.5555 35.9207 20.229 35.4186 19.9296C35.2048 19.7955 35.0067 19.638 34.8278 19.4601C34.4527 19.0885 33.8251 18.443 33.6216 18.0445C33.4917 17.7999 33.5457 17.3305 33.6462 16.8953C33.8241 16.1277 33.691 15.321 33.276 14.6507L32.6214 13.592C32.3209 13.1088 32.079 12.5917 31.9007 12.0516C31.6763 11.3569 31.2839 10.728 30.7583 10.2202C29.6968 9.18599 26.7599 8.67741 24.3207 8.59673C24.1693 8.5517 24.0154 8.51577 23.8598 8.48914C22.7738 8.30332 21.6142 8.00013 20.5747 8.19818C19.0303 8.4867 17.4711 8.96837 16.3042 10.1542C16.0591 10.3987 15.7036 10.5088 15.4511 10.7362C14.9608 11.1885 14.2719 11.1885 13.8257 11.6897C13.5659 11.9807 13.4458 12.9367 12.7618 13.301C11.6292 13.905 10.8006 14.5725 10.5187 14.9123C10.3103 15.1691 10.1509 15.4674 9.94747 15.729C9.744 15.9906 8.7683 16.4503 8.47657 16.7339C8.2601 16.9731 8.10297 17.2597 8.01781 17.5706C7.93265 17.8814 7.92185 18.2079 7.98627 18.5237C8.00343 18.5995 8.0157 18.6606 8.0255 18.7095C8.13827 19.1252 8.43979 19.8758 8.37114 20.2206C8.28779 20.6289 7.2361 23.6705 9.5969 24.4799C9.8129 24.5443 10.0024 24.6763 10.1375 24.8564C10.2725 25.0364 10.346 25.255 10.3471 25.4799C10.398 25.8859 10.5157 26.2807 10.6952 26.6486C10.8521 26.9467 11.0834 27.1994 11.3669 27.3821C11.6692 27.6689 11.9549 27.9725 12.2225 28.2917C13.056 29.8297 12.8206 30.5999 14.4288 31.1207C14.8392 31.2556 15.233 31.4361 15.6031 31.6586C16.0541 31.9299 16.5376 32.1435 17.0421 32.2943L17.1059 32.3163C17.4589 31.4605 17.8192 30.6512 18.1772 29.8859C15.304 26.9518 16.0591 23.6534 16.3361 22.7732C16.3441 22.7471 16.3585 22.7234 16.378 22.7043C16.3976 22.6851 16.4215 22.6712 16.4479 22.6636C16.4742 22.6561 16.5019 22.6553 16.5287 22.6612C16.5554 22.6671 16.5802 22.6795 16.6009 22.6974C17.2039 23.2255 19.0524 25.1254 18.8244 28.5656C19.4569 27.3015 20.0746 26.1914 20.6385 25.2427C19.9598 24.1308 19.5974 22.8557 19.59 21.554C19.5827 20.2523 19.9307 18.9732 20.5968 17.8537C20.6115 17.83 20.6321 17.8104 20.6566 17.7968C20.681 17.7832 20.7085 17.776 20.7366 17.776C20.7646 17.776 20.7921 17.7832 20.8165 17.7968C20.841 17.8104 20.8616 17.83 20.8763 17.8537C21.3004 18.4797 22.4477 20.5433 21.7368 23.4774C22.2516 22.6901 22.6708 22.1081 22.9454 21.7438C23.6808 16.8537 27.3875 15.2497 28.3607 14.9099C28.3868 14.9007 28.4149 14.8982 28.4422 14.9027C28.4695 14.9072 28.4953 14.9185 28.5171 14.9356C28.5388 14.9526 28.5559 14.9749 28.5667 15.0004C28.5776 15.0258 28.5817 15.0535 28.5789 15.081C28.4242 16.5703 27.8777 17.9923 26.9948 19.2031C26.1118 20.4139 24.9238 21.3706 23.5509 21.9761C23.0336 22.6534 22.536 23.3674 22.0604 24.0984C23.7029 22.8197 26.0024 22.2182 27.9146 22.6803C27.9414 22.6864 27.9662 22.6991 27.9869 22.7171C28.0076 22.7351 28.0236 22.758 28.0333 22.7837C28.043 22.8093 28.0462 22.837 28.0426 22.8641C28.039 22.8913 28.0287 22.9172 28.0126 22.9395C27.4635 23.673 25.2767 26.1181 21.1484 25.5532C20.4522 26.7244 19.8148 27.9078 19.2485 29.0423C21.0283 27.7 23.6269 27.1865 25.642 27.8614C25.6689 27.87 25.6932 27.8853 25.7127 27.9057C25.7322 27.9261 25.7463 27.9511 25.7536 27.9783C25.7609 28.0056 25.7612 28.0342 25.7546 28.0616C25.748 28.089 25.7345 28.1143 25.7155 28.1352C25.0904 28.8076 22.6806 31.0131 18.7165 30.1377C18.3439 30.9202 17.7898 32.2087 17.5202 32.8444C17.427 33.0645 17.3412 33.2845 17.275 33.5095C17.0985 34.0278 16.8632 34.6758 16.5812 35.3213C16.5421 35.4136 16.5223 35.5129 16.5231 35.6131C16.5239 35.7133 16.5454 35.8123 16.586 35.9039C16.6267 35.9956 16.6857 36.0779 16.7595 36.1459C16.8333 36.2139 16.9203 36.2661 17.0152 36.2993C20.1418 37.4138 23.537 37.5393 26.7378 36.6587C26.8436 36.6286 26.9412 36.5751 27.0235 36.5023C27.1058 36.4296 27.1707 36.3393 27.2134 36.2382L27.3458 35.9301C27.3458 35.9301 28.7284 32.7295 28.9319 31.3334C28.99 30.8936 29.127 30.4679 29.3364 30.0766C29.4443 29.8809 29.6004 29.7158 29.79 29.5968C29.9795 29.4779 30.1964 29.4091 30.42 29.3969C31.4741 29.3406 33.7173 29.1939 34.5336 28.9348C35.6172 28.5925 35.1465 26.6217 35.0901 26.409C35.0337 26.1963 35.6123 25.7024 35.73 25.4163C35.8476 25.1302 35.4382 25.0276 35.2691 24.7121C35.0999 24.3967 35.6883 24.1669 35.7594 23.8808C35.8305 23.5947 35.5682 23.2793 35.4554 23.0666C35.3804 22.9121 35.3292 22.7473 35.3034 22.5776C35.3034 22.5776 36.0952 21.9981 36.5291 21.6338C36.963 21.2695 36.8723 20.9663 36.8723 20.9003" fill="black"/>
<path d="M66.0635 29.3986V20.5827L62.8824 27.0021H61.0179L57.8368 20.5827V29.3986H54.438V14.6013H58.128L61.9403 22.3346L65.7747 14.6013H69.4452V29.3986H66.0635Z" fill="black"/>
<path d="M84.7463 26.3969V29.3986H74.3491V14.6013H84.5593V17.6031H77.7656V20.4794H83.6001V23.2499H77.7656V26.3969H84.7463Z" fill="black"/>
<path d="M100.146 17.6031H95.677V29.3986H92.2781V17.6031H87.7871V14.6013H100.141L100.146 17.6031Z" fill="black"/>
<path d="M103.873 29.3986V14.6013H107.306V29.3986H103.873Z" fill="black"/>
<path d="M121.066 18.9481C120.941 18.813 120.792 18.7029 120.627 18.6234C120.323 18.45 120.01 18.294 119.688 18.1561C119.288 17.9805 118.877 17.8342 118.456 17.7183C118.021 17.5947 117.572 17.5317 117.12 17.5314C116.649 17.5039 116.18 17.6078 115.765 17.8315C115.606 17.9254 115.477 18.0607 115.39 18.2228C115.303 18.385 115.262 18.5677 115.272 18.7513C115.266 18.9016 115.296 19.0511 115.359 19.1876C115.422 19.324 115.518 19.4434 115.636 19.5359C115.955 19.7668 116.312 19.9392 116.691 20.045C117.15 20.1901 117.714 20.3573 118.382 20.5516C119.232 20.7651 120.058 21.0668 120.846 21.4518C121.488 21.7563 122.037 22.2236 122.441 22.807C122.839 23.4663 123.032 24.2292 122.995 24.9984C123.018 25.7254 122.86 26.4468 122.537 27.0988C122.246 27.6547 121.823 28.131 121.305 28.4859C120.76 28.8462 120.155 29.1053 119.518 29.2508C118.841 29.4126 118.148 29.4951 117.453 29.4967C116.708 29.4947 115.965 29.4222 115.235 29.2803C114.49 29.1381 113.76 28.9282 113.054 28.6531C112.379 28.3953 111.735 28.0654 111.131 27.6693L112.635 24.6909C112.8 24.84 112.982 24.9695 113.177 25.0771C113.544 25.2945 113.924 25.4891 114.315 25.66C114.806 25.8749 115.311 26.0525 115.829 26.1912C116.379 26.3428 116.948 26.4197 117.519 26.4199C117.993 26.4514 118.466 26.3528 118.887 26.1346C119.027 26.0543 119.142 25.9379 119.221 25.7976C119.3 25.6574 119.339 25.4986 119.336 25.3378C119.341 25.1647 119.3 24.9933 119.218 24.8409C119.136 24.6885 119.015 24.5604 118.867 24.4696C118.471 24.2246 118.042 24.0359 117.593 23.9088C117.056 23.744 116.442 23.5571 115.745 23.3505C114.964 23.1251 114.212 22.8124 113.502 22.4184C112.96 22.1196 112.506 21.6836 112.186 21.1542C111.882 20.581 111.735 19.938 111.76 19.2899C111.729 18.3608 111.987 17.4448 112.499 16.6681C112.999 15.9534 113.689 15.3934 114.493 15.0523C115.356 14.6805 116.288 14.4937 117.228 14.5038C117.907 14.5003 118.584 14.5829 119.242 14.7498C119.864 14.9062 120.472 15.1152 121.058 15.3745C121.623 15.6204 122.125 15.8664 122.571 16.1246L121.066 18.9481Z" fill="black"/>
</svg>
