<svg xmlns="http://www.w3.org/2000/svg" width="207.428" height="44.178" viewBox="0 0 207.428 44.178"><g id="_2022_V-Brand_2022_FullColour" data-name="2022_V-Brand_2022 FullColour" transform="translate(-81.172 -59.427)"><path id="Path_1" data-name="Path 1" d="M126.453,81.6a22.643,22.643,0,1,0-31.642,21.265,19.594,19.594,0,0,0,2.5-5.378c.454-1.155.947-2.291,1.458-3.39a7.107,7.107,0,0,0,7.082-1.8l.076-.076h0a7.04,7.04,0,0,0-6.722,1c.625-1.307,1.307-2.575,2.007-3.806a7.069,7.069,0,0,0,7.139-1.458l.076-.076h0a7.063,7.063,0,0,0-6.665.625c.7-1.155,1.42-2.291,2.178-3.352a7.092,7.092,0,0,0,7.044-2.083l.057-.076h0a6.957,6.957,0,0,0-6.192.947c.057-.076.133-.17.189-.246.454-.587.928-1.174,1.4-1.742a8.337,8.337,0,0,0,5.624-6.514l.019-.114h-.019a8.3,8.3,0,0,0-6.041,6.362c-.454.549-.909,1.1-1.344,1.666a6.951,6.951,0,0,0-.454-5.927h0l-.057.076a7.087,7.087,0,0,0-.606,7.385c-.72,1.023-1.42,2.064-2.083,3.162a7,7,0,0,0-1.837-6.192h0l-.038.095a7.065,7.065,0,0,0,1.212,7.252c-.663,1.155-1.288,2.348-1.894,3.579a7.316,7.316,0,0,0-2.083-6.362h0l-.038.095a7.34,7.34,0,0,0,1.591,7.4c-.4.852-.776,1.7-1.136,2.594a1.031,1.031,0,0,0-.341-.208,7.5,7.5,0,0,1-1.837-.814,7.587,7.587,0,0,0-1.5-.682c-2.045-.663-1.742-1.647-2.8-3.636A15.063,15.063,0,0,0,89.68,90a2.52,2.52,0,0,1-.852-.928,4.417,4.417,0,0,1-.436-1.5,1.382,1.382,0,0,0-.966-1.288c-3.011-1.041-1.666-4.942-1.553-5.454a6.525,6.525,0,0,0-.436-1.931,1.623,1.623,0,0,1-.057-.246,2.661,2.661,0,0,1,.625-2.291c.36-.36,1.61-.947,1.875-1.288s.454-.72.72-1.041a10.979,10.979,0,0,1,2.878-2.064c.871-.473,1.023-1.685,1.363-2.064.568-.644,1.439-.644,2.083-1.212.322-.284.8-.436,1.1-.738a9.878,9.878,0,0,1,5.454-2.518,12.366,12.366,0,0,1,4.2.379,5.336,5.336,0,0,1,.587.133c3.124.114,6.874.757,8.237,2.083a5.593,5.593,0,0,1,1.458,2.348,8.881,8.881,0,0,0,.909,1.969l.833,1.363a3.833,3.833,0,0,1,.473,2.878,2.631,2.631,0,0,0-.038,1.477,10.292,10.292,0,0,0,1.534,1.818,4.623,4.623,0,0,0,.757.606,20.427,20.427,0,0,1,1.856,1.25,1.017,1.017,0,0,1-.436.947c-.53.473-1.553,1.212-1.553,1.212a2.5,2.5,0,0,0,.189.606c.151.265.492.682.379,1.041s-.852.663-.644,1.06c.208.417.738.53.587.909-.151.36-.89,1-.814,1.269s.682,2.8-.72,3.238a31.493,31.493,0,0,1-5.264.587,1.689,1.689,0,0,0-1.382.871,4.593,4.593,0,0,0-.511,1.61,37.647,37.647,0,0,1-2.026,5.889s-.057.114-.133.284a3.509,3.509,0,0,0-.341,1.193,2.393,2.393,0,0,0,.53.814.954.954,0,0,0,1,.284A22.822,22.822,0,0,0,126.453,81.6Z" transform="translate(0 0)" fill="#00dacc"></path><g id="Group_1" data-name="Group 1" transform="translate(146.582 70.216)"><path id="Path_2" data-name="Path 2" d="M426.619,118.2h5.169l5.738,9.241,5.738-9.241h5.188v21.852H443.68V125.793l-6.154,9.335h-.133l-6.078-9.241v14.164H426.6V118.2Z" transform="translate(-426.6 -117.859)" fill="#313144"></path><path id="Path_3" data-name="Path 3" d="M632.319,118.2h16.474v4.279h-11.7v4.431h10.3v4.279h-10.3v4.582h11.854v4.279H632.3V118.2Z" transform="translate(-593.349 -117.859)" fill="#313144"></path><path id="Path_4" data-name="Path 4" d="M803.946,122.631H797.3V118.2h18.1v4.431h-6.646v17.421h-4.81Z" transform="translate(-727.105 -117.859)" fill="#313144"></path><path id="Path_5" data-name="Path 5" d="M976.1,118.2h4.81v21.852H976.1Z" transform="translate(-872.048 -117.859)" fill="#313144"></path><path id="Path_6" data-name="Path 6" d="M1085.1,135.393l2.84-3.408a10.1,10.1,0,0,0,6.533,2.651c2.007,0,3.143-.776,3.143-2.064v-.057c0-1.212-.757-1.875-4.393-2.784-4.431-1.1-7.233-2.367-7.233-6.684v-.057c0-3.958,3.143-6.59,7.65-6.59a12.673,12.673,0,0,1,8.123,2.784l-2.5,3.617a10.247,10.247,0,0,0-5.681-2.159c-1.875,0-2.8.814-2.8,1.913v.057c0,1.458.928,1.875,4.715,2.878,4.431,1.193,6.931,2.746,6.931,6.552v.057c0,4.336-3.314,6.779-8.029,6.779A13.523,13.523,0,0,1,1085.1,135.393Z" transform="translate(-960.408 -116.4)" fill="#313144"></path></g></g></svg>