<svg width="175" height="44" viewBox="0 0 175 44" fill="none" xmlns="http://www.w3.org/2000/svg">
<path d="M44.0407 22C44.0407 17.6488 42.7492 13.3953 40.3296 9.77746C37.9099 6.15958 34.4708 3.33979 30.4471 1.67466C26.4235 0.00953293 21.9959 -0.426141 17.7244 0.422733C13.4529 1.27161 9.5292 3.36691 6.4496 6.44366C3.37 9.52041 1.27279 13.4404 0.423126 17.708C-0.426533 21.9756 0.00953613 26.3991 1.6762 30.419C3.34287 34.439 6.16527 37.8749 9.78649 40.2923C13.4077 42.7097 17.6651 44 22.0203 44C27.8605 44 33.4614 41.6821 37.591 37.5564C41.7207 33.4305 44.0407 27.8348 44.0407 22Z" fill="#00D2FF"/>
<path d="M36.8723 20.9077C36.406 20.5556 35.9207 20.2291 35.4186 19.9297C35.2048 19.7956 35.0067 19.6381 34.8278 19.4603C34.4527 19.0886 33.8251 18.4431 33.6216 18.0446C33.4917 17.8001 33.5457 17.3306 33.6462 16.8954C33.8241 16.1278 33.691 15.3212 33.276 14.6508L32.6214 13.5921C32.3209 13.1089 32.079 12.5918 31.9007 12.0517C31.6763 11.3571 31.2839 10.7282 30.7583 10.2204C29.6968 9.18611 26.7599 8.67754 24.3207 8.59685C24.1693 8.55182 24.0154 8.51589 23.8598 8.48926C22.7738 8.30344 21.6142 8.00025 20.5747 8.1983C19.0303 8.48682 17.4711 8.9685 16.3042 10.1544C16.0591 10.3989 15.7036 10.5089 15.4511 10.7363C14.9608 11.1886 14.2719 11.1886 13.8257 11.6899C13.5659 11.9808 13.4458 12.9368 12.7618 13.3011C11.6292 13.9051 10.8006 14.5726 10.5187 14.9124C10.3103 15.1692 10.1509 15.4675 9.94747 15.7291C9.744 15.9907 8.7683 16.4504 8.47657 16.734C8.2601 16.9733 8.10297 17.2598 8.01781 17.5707C7.93265 17.8816 7.92185 18.208 7.98627 18.5238C8.00343 18.5996 8.0157 18.6607 8.0255 18.7096C8.13827 19.1253 8.43979 19.8759 8.37114 20.2207C8.28779 20.629 7.2361 23.6707 9.5969 24.48C9.8129 24.5445 10.0024 24.6765 10.1375 24.8565C10.2725 25.0366 10.346 25.2551 10.3471 25.48C10.398 25.886 10.5157 26.2809 10.6952 26.6488C10.8521 26.9468 11.0834 27.1995 11.3669 27.3823C11.6692 27.669 11.9549 27.9727 12.2225 28.2918C13.056 29.8298 12.8206 30.6 14.4288 31.1208C14.8392 31.2557 15.233 31.4362 15.6031 31.6587C16.0541 31.93 16.5376 32.1436 17.0421 32.2944L17.1059 32.3164C17.4589 31.4606 17.8192 30.6513 18.1772 29.886C15.304 26.9519 16.0591 23.6535 16.3361 22.7733C16.3441 22.7472 16.3585 22.7235 16.378 22.7044C16.3976 22.6853 16.4215 22.6713 16.4479 22.6638C16.4742 22.6562 16.5019 22.6554 16.5287 22.6613C16.5554 22.6672 16.5802 22.6796 16.6009 22.6975C17.2039 23.2257 19.0524 25.1255 18.8244 28.5657C19.4569 27.3016 20.0746 26.1915 20.6385 25.2428C19.9598 24.131 19.5974 22.8558 19.59 21.5541C19.5827 20.2524 19.9307 18.9733 20.5968 17.8539C20.6115 17.8301 20.6321 17.8105 20.6566 17.7969C20.681 17.7833 20.7085 17.7761 20.7366 17.7761C20.7646 17.7761 20.7921 17.7833 20.8165 17.7969C20.841 17.8105 20.8616 17.8301 20.8763 17.8539C21.3004 18.4798 22.4477 20.5434 21.7368 23.4775C22.2516 22.6902 22.6708 22.1083 22.9454 21.744C23.6808 16.8538 27.3875 15.2499 28.3607 14.91C28.3868 14.9008 28.4149 14.8983 28.4422 14.9028C28.4695 14.9073 28.4953 14.9186 28.5171 14.9357C28.5388 14.9528 28.5559 14.975 28.5667 15.0005C28.5776 15.0259 28.5817 15.0537 28.5789 15.0812C28.4242 16.5704 27.8777 17.9924 26.9948 19.2032C26.1118 20.4141 24.9238 21.3707 23.5509 21.9762C23.0336 22.6535 22.536 23.3675 22.0604 24.0986C23.7029 22.8198 26.0024 22.2183 27.9146 22.6804C27.9414 22.6865 27.9662 22.6992 27.9869 22.7172C28.0076 22.7353 28.0236 22.7581 28.0333 22.7838C28.043 22.8094 28.0462 22.8371 28.0426 22.8643C28.039 22.8915 28.0287 22.9173 28.0126 22.9396C27.4635 23.6731 25.2767 26.1182 21.1484 25.5534C20.4522 26.7246 19.8148 27.908 19.2485 29.0425C21.0283 27.7001 23.6269 27.1867 25.642 27.8615C25.6689 27.8701 25.6932 27.8854 25.7127 27.9058C25.7322 27.9262 25.7463 27.9512 25.7536 27.9784C25.7609 28.0057 25.7612 28.0343 25.7546 28.0617C25.748 28.0891 25.7345 28.1145 25.7155 28.1354C25.0904 28.8077 22.6806 31.0132 18.7165 30.1379C18.3439 30.9203 17.7898 32.2088 17.5202 32.8445C17.427 33.0646 17.3412 33.2847 17.275 33.5096C17.0985 34.028 16.8632 34.6759 16.5812 35.3214C16.5421 35.4137 16.5223 35.513 16.5231 35.6132C16.5239 35.7134 16.5454 35.8124 16.586 35.9041C16.6267 35.9957 16.6857 36.0781 16.7595 36.1461C16.8333 36.2141 16.9203 36.2663 17.0152 36.2994C20.1418 37.4139 23.537 37.5394 26.7378 36.6588C26.8436 36.6287 26.9412 36.5752 27.0235 36.5025C27.1058 36.4297 27.1707 36.3394 27.2134 36.2383L27.3458 35.9302C27.3458 35.9302 28.7284 32.7296 28.9319 31.3335C28.99 30.8938 29.127 30.468 29.3364 30.0767C29.4443 29.881 29.6004 29.7159 29.79 29.597C29.9795 29.478 30.1964 29.4092 30.42 29.397C31.4741 29.3408 33.7173 29.1941 34.5336 28.9349C35.6172 28.5926 35.1465 26.6219 35.0901 26.4091C35.0337 26.1964 35.6123 25.7025 35.73 25.4164C35.8476 25.1304 35.4382 25.0277 35.2691 24.7123C35.0999 24.3969 35.6883 24.167 35.7594 23.8809C35.8305 23.5949 35.5682 23.2795 35.4554 23.0667C35.3804 22.9123 35.3292 22.7474 35.3034 22.5777C35.3034 22.5777 36.0952 21.9982 36.5291 21.6339C36.963 21.2696 36.8723 20.9664 36.8723 20.9004" fill="black"/>
<path d="M66.0635 29.3986V20.5827L62.8824 27.0021H61.0179L57.8368 20.5827V29.3986H54.438V14.6013H58.128L61.9403 22.3346L65.7747 14.6013H69.4452V29.3986H66.0635Z" fill="white"/>
<path d="M84.7463 26.3969V29.3986H74.3491V14.6013H84.5593V17.6031H77.7656V20.4794H83.6001V23.2499H77.7656V26.3969H84.7463Z" fill="white"/>
<path d="M100.146 17.6031H95.677V29.3986H92.2781V17.6031H87.7871V14.6013H100.141L100.146 17.6031Z" fill="white"/>
<path d="M103.873 29.3986V14.6013H107.306V29.3986H103.873Z" fill="white"/>
<path d="M121.066 18.9479C120.941 18.8129 120.792 18.7027 120.627 18.6233C120.323 18.4499 120.01 18.2938 119.688 18.156C119.288 17.9804 118.877 17.8341 118.456 17.7182C118.021 17.5945 117.572 17.5316 117.12 17.5313C116.649 17.5038 116.18 17.6077 115.765 17.8314C115.606 17.9253 115.477 18.0606 115.39 18.2227C115.303 18.3848 115.262 18.5676 115.272 18.7512C115.266 18.9015 115.296 19.051 115.359 19.1875C115.422 19.3239 115.518 19.4433 115.636 19.5358C115.955 19.7667 116.312 19.9391 116.691 20.0449C117.15 20.19 117.714 20.3572 118.382 20.5515C119.232 20.7649 120.058 21.0666 120.846 21.4517C121.488 21.7561 122.037 22.2235 122.441 22.8069C122.839 23.4662 123.032 24.229 122.995 24.9982C123.018 25.7253 122.86 26.4467 122.537 27.0986C122.246 27.6546 121.823 28.1309 121.305 28.4858C120.76 28.8461 120.155 29.1052 119.518 29.2507C118.841 29.4125 118.148 29.495 117.453 29.4966C116.708 29.4946 115.965 29.4221 115.235 29.2802C114.49 29.138 113.76 28.928 113.054 28.653C112.379 28.3952 111.735 28.0653 111.131 27.6692L112.635 24.6908C112.8 24.8399 112.982 24.9694 113.177 25.0769C113.544 25.2943 113.924 25.489 114.315 25.6598C114.806 25.8748 115.311 26.0524 115.829 26.1911C116.379 26.3427 116.948 26.4196 117.519 26.4198C117.993 26.4513 118.466 26.3526 118.887 26.1345C119.027 26.0541 119.142 25.9377 119.221 25.7975C119.3 25.6573 119.339 25.4984 119.336 25.3377C119.341 25.1646 119.3 24.9932 119.218 24.8408C119.136 24.6883 119.015 24.5603 118.867 24.4695C118.471 24.2245 118.042 24.0358 117.593 23.9087C117.056 23.7439 116.442 23.557 115.745 23.3504C114.964 23.125 114.212 22.8123 113.502 22.4183C112.96 22.1195 112.506 21.6835 112.186 21.1541C111.882 20.5809 111.735 19.9378 111.76 19.2898C111.729 18.3606 111.987 17.4447 112.499 16.668C112.999 15.9533 113.689 15.3933 114.493 15.0521C115.356 14.6804 116.288 14.4936 117.228 14.5037C117.907 14.5002 118.584 14.5828 119.242 14.7496C119.864 14.9061 120.472 15.1151 121.058 15.3743C121.623 15.6203 122.125 15.8662 122.571 16.1245L121.066 18.9479Z" fill="white"/>
</svg>
