<svg width="62" height="62" viewBox="0 0 62 62" fill="none" xmlns="http://www.w3.org/2000/svg">
<g id="Frame 459">
<g id="Group 409">
<path id="Vector" d="M41.7068 18.5598H20.2899C19.3345 18.5598 18.5601 19.3342 18.5601 20.2896V41.7065C18.5601 42.6619 19.3345 43.4364 20.2899 43.4364H41.7068C42.6622 43.4364 43.4367 42.6619 43.4367 41.7065V20.2896C43.4367 19.3342 42.6622 18.5598 41.7068 18.5598Z" stroke="white" stroke-width="2" stroke-miterlimit="10" stroke-linecap="round"/>
<path id="Vector_2" d="M24.4585 1H17.3637C17.1365 1 16.9116 1.04476 16.7017 1.13169C16.4918 1.21863 16.3011 1.34607 16.1404 1.5067C15.9798 1.66734 15.8524 1.85803 15.7655 2.06791C15.6785 2.27779 15.6338 2.50273 15.6338 2.7299V12.4429C15.6338 12.67 15.6785 12.895 15.7655 13.1048C15.8524 13.3147 15.9798 13.5055 16.1404 13.6661C16.3011 13.8267 16.4918 13.9541 16.7017 14.0411C16.9116 14.128 17.1365 14.1728 17.3637 14.1728H32.9481C33.4069 14.1728 33.8469 13.9905 34.1713 13.6661C34.4957 13.3417 34.6779 12.9016 34.6779 12.4429V6.12729" stroke="white" stroke-width="2" stroke-miterlimit="10" stroke-linecap="round"/>
<path id="Vector_3" d="M37.5417 14.1728H44.6366C44.8637 14.1728 45.0887 14.128 45.2985 14.0411C45.5084 13.9541 45.6991 13.8267 45.8598 13.6661C46.0204 13.5055 46.1478 13.3147 46.2347 13.1048C46.3217 12.895 46.3664 12.67 46.3664 12.4429V2.7299C46.3664 2.50273 46.3217 2.27779 46.2347 2.06791C46.1478 1.85803 46.0204 1.66734 45.8598 1.5067C45.6991 1.34607 45.5084 1.21863 45.2985 1.13169C45.0887 1.04476 44.8637 1 44.6366 1H29.0521C28.8252 0.999999 28.6004 1.04481 28.3907 1.13179C28.1811 1.21877 27.9906 1.34621 27.8303 1.50689C27.67 1.66758 27.543 1.85834 27.4564 2.06819C27.3699 2.27805 27.3257 2.50291 27.3262 2.7299V8.98701" stroke="white" stroke-width="2" stroke-miterlimit="10" stroke-linecap="round"/>
<path id="Vector_4" d="M24.4585 47.8156H17.3637C17.1367 47.8151 16.9118 47.8594 16.702 47.9459C16.4921 48.0324 16.3014 48.1594 16.1407 48.3198C15.98 48.4801 15.8525 48.6705 15.7656 48.8802C15.6786 49.0899 15.6338 49.3146 15.6338 49.5416V59.2546C15.6338 59.4817 15.6785 59.7067 15.7655 59.9166C15.8524 60.1264 15.9798 60.3171 16.1404 60.4778C16.3011 60.6384 16.4918 60.7658 16.7017 60.8528C16.9116 60.9397 17.1365 60.9845 17.3637 60.9845H32.9481C33.4069 60.9845 33.8469 60.8022 34.1713 60.4778C34.4957 60.1534 34.6779 59.7134 34.6779 59.2546V52.9585" stroke="white" stroke-width="2" stroke-miterlimit="10" stroke-linecap="round"/>
<path id="Vector_5" d="M37.5417 61H44.6366C44.8637 61 45.0887 60.9553 45.2985 60.8683C45.5084 60.7814 45.6991 60.654 45.8598 60.4933C46.0204 60.3327 46.1478 60.142 46.2347 59.9321C46.3217 59.7222 46.3664 59.4973 46.3664 59.2701V49.5571C46.3664 49.3301 46.3216 49.1054 46.2347 48.8957C46.1477 48.6861 46.0202 48.4956 45.8595 48.3353C45.6988 48.175 45.5081 48.048 45.2983 47.9614C45.0884 47.8749 44.8635 47.8307 44.6366 47.8312H29.0521C28.5944 47.8312 28.1554 48.013 27.8317 48.3367C27.508 48.6604 27.3262 49.0994 27.3262 49.5571V55.8182" stroke="white" stroke-width="2" stroke-miterlimit="10" stroke-linecap="round"/>
<path id="Vector_6" d="M14.1688 24.4585V17.3636C14.1693 17.1367 14.1251 16.9118 14.0386 16.7019C13.9521 16.4921 13.825 16.3014 13.6647 16.1407C13.5044 15.98 13.3139 15.8525 13.1043 15.7655C12.8946 15.6785 12.6698 15.6338 12.4429 15.6338H2.72598C2.49899 15.6338 2.27423 15.6785 2.06457 15.7655C1.85491 15.8525 1.66447 15.98 1.50415 16.1407C1.34383 16.3014 1.21677 16.4921 1.13026 16.7019C1.04375 16.9118 0.999492 17.1367 1 17.3636V32.9481C0.999492 33.175 1.04375 33.3999 1.13026 33.6098C1.21677 33.8196 1.34383 34.0104 1.50415 34.1711C1.66447 34.3317 1.85491 34.4592 2.06457 34.5462C2.27423 34.6331 2.49899 34.6779 2.72598 34.6779H9.03377" stroke="white" stroke-width="2" stroke-miterlimit="10" stroke-linecap="round"/>
<path id="Vector_7" d="M1 37.5416V44.6364C0.999492 44.8634 1.04375 45.0882 1.13026 45.2981C1.21677 45.5079 1.34383 45.6987 1.50415 45.8594C1.66447 46.0201 1.85491 46.1475 2.06457 46.2345C2.27423 46.3215 2.49899 46.3663 2.72598 46.3663H12.4429C12.6698 46.3663 12.8946 46.3215 13.1043 46.2345C13.3139 46.1475 13.5044 46.0201 13.6647 45.8594C13.825 45.6987 13.9521 45.5079 14.0386 45.2981C14.1251 45.0882 14.1693 44.8634 14.1688 44.6364V29.0714C14.1693 28.8445 14.1251 28.6196 14.0386 28.4097C13.9521 28.1999 13.825 28.0092 13.6647 27.8485C13.5044 27.6878 13.3139 27.5603 13.1043 27.4733C12.8946 27.3864 12.6698 27.3416 12.4429 27.3416H6.18182" stroke="white" stroke-width="2" stroke-miterlimit="10" stroke-linecap="round"/>
<path id="Vector_8" d="M61.0004 24.4585V17.3636C61.0004 16.9048 60.8181 16.4649 60.4937 16.1404C60.1693 15.816 59.7293 15.6338 59.2705 15.6338H49.5536C49.3264 15.6338 49.1015 15.6785 48.8916 15.7654C48.6817 15.8524 48.491 15.9798 48.3304 16.1404C48.1698 16.3011 48.0423 16.4918 47.9554 16.7017C47.8685 16.9115 47.8237 17.1365 47.8237 17.3636V32.9481C47.8237 33.1752 47.8685 33.4002 47.9554 33.61C48.0423 33.8199 48.1698 34.0107 48.3304 34.1713C48.491 34.3319 48.6817 34.4593 48.8916 34.5463C49.1015 34.6332 49.3264 34.6779 49.5536 34.6779H55.8536" stroke="white" stroke-width="2" stroke-miterlimit="10" stroke-linecap="round"/>
<path id="Vector_9" d="M47.8276 37.5416V44.6364C47.8276 44.8635 47.8724 45.0885 47.9593 45.2984C48.0462 45.5082 48.1737 45.699 48.3343 45.8596C48.4949 46.0202 48.6856 46.1476 48.8955 46.2346C49.1054 46.3215 49.3303 46.3663 49.5575 46.3663H59.2705C59.7293 46.3663 60.1693 46.184 60.4937 45.8596C60.8181 45.5352 61.0004 45.0952 61.0004 44.6364V29.0714C61.0004 28.6127 60.8181 28.1727 60.4937 27.8483C60.1693 27.5238 59.7293 27.3416 59.2705 27.3416H53.0134" stroke="white" stroke-width="2" stroke-miterlimit="10" stroke-linecap="round"/>
<path id="Vector_10" d="M37.8576 33.7655C39.7631 29.3664 38.1418 24.4288 34.2362 22.7371C30.3307 21.0454 25.6199 23.2402 23.7144 27.6394C21.8089 32.0385 23.4302 36.9761 27.3358 38.6678C31.2413 40.3595 35.9521 38.1647 37.8576 33.7655Z" stroke="white" stroke-width="2" stroke-miterlimit="10" stroke-linecap="round"/>
</g>
</g>
</svg>
