<svg width="55" height="62" viewBox="0 0 55 62" fill="none" xmlns="http://www.w3.org/2000/svg">
<g id="Group 439">
<path id="Vector" d="M53.2256 35.4976C53.2256 52.1262 30.3871 60.549 27.1128 60.7463C23.8385 60.549 1 52.1262 1 35.4976V15.8797C1 14.3454 1.87763 12.9463 3.25898 12.2785L25.3718 1.58798C26.4716 1.05628 27.7541 1.05628 28.8538 1.58798L50.9667 12.2785C52.348 12.9463 53.2256 14.3454 53.2256 15.8797V35.4976Z" stroke="white" stroke-width="2"/>
<path id="Vector_2" d="M47.7283 34.5474C47.7283 47.8502 29.6979 54.5885 27.1129 54.7463C24.528 54.5885 6.49756 47.8502 6.49756 34.5474V18.093C6.49756 17.3296 6.93213 16.6328 7.61767 16.297L26.2331 7.17733C26.7881 6.9054 27.4378 6.9054 27.9928 7.17733L46.6082 16.297C47.2938 16.6328 47.7283 17.3296 47.7283 18.093V34.5474Z" stroke="white" stroke-width="2"/>
<path id="Polygon 9" d="M27.4565 16.0386L40.2515 23.0822V37.1693L27.4565 44.2129L14.6615 37.1693V23.0822L27.4565 16.0386Z" stroke="white" stroke-width="2"/>
<path id="Vector 73" d="M15.4307 22.9104L27.4563 29.7822L39.4819 22.9104" stroke="white" stroke-width="2"/>
<path id="Vector 74" d="M27.1128 29.7822V44.2129" stroke="white" stroke-width="2"/>
</g>
</svg>
